#!OML:ASF H:\ManfredETheater\Project 1\Capture day 1\Session 1\subject.ASF
:FULLY-SPECIFIED
:DEGREES
93
root 6.6425 15.3294 -0.514827 7.9486 16.9137 9.89658
lowerback 18.1727 -0.0556226 -11.9829
upperback 3.09166 -2.67141 -4.88227
thorax -6.51949 -1.05128 2.09849
lowerneck -16.7153 -5.5987 -7.59689
upperneck 8.81903 -7.02718 9.09924
head 5.99349 -3.00167 3.41152
rclavicle -1.19271e-015 2.54444e-014
rhumerus -60.2735 1.81693 -82.1121
rradius 76.0566
rwrist -12.1329
rhand -27.7454 5.97422
rfingers 7.12502
rthumb -1.14 -24.0025
lclavicle -1.19271e-015 2.54444e-014
lhumerus -25.714 -8.43877 75.0682
lradius 111.963
lwrist 8.73042
lhand -19.5567 -10.3875
lfingers 7.12502
lthumb 6.76779 19.4843
rfemur -22.749 -17.6385 16.3352
rtibia 101.429
rfoot -10.5079 -5.4569
rtoes -38.9009
lfemur -32.5671 -4.81354 -7.27765
ltibia 56.3474
lfoot -31.1046 -9.49768
ltoes -29.5653
94
root 6.78329 15.2613 -0.161506 8.50622 16.5306 10.4168
lowerback 18.4542 -0.156092 -12.1865
upperback 3.09281 -2.89396 -4.97337
thorax -6.63905 -1.14713 2.16733
lowerneck -17.1365 -5.50314 -7.44506
upperneck 8.46041 -6.85525 8.9225
head 5.9214 -2.91968 3.34361
rclavicle 8.50798e-014 6.2816e-014
rhumerus -60.38 1.04022 -81.8944
rradius 75.2827
rwrist -13.0424
rhand -28.3438 6.00125
rfingers 7.12502
rthumb -1.71798 -23.9716
lclavicle 8.50798e-014 6.2816e-014
lhumerus -23.4646 -7.73684 75.6015
lradius 111.76
lwrist 8.45826
lhand -19.7379 -10.3273
lfingers 7.12502
lthumb 6.59284 19.5501
rfemur -26.7739 -18.5626 17.2331
rtibia 102.974
rfoot -11.9336 -5.48543
rtoes -39.1134
lfemur -31.5633 -4.77147 -8.00798
ltibia 56.8551
lfoot -33.1035 -8.87716
ltoes -29.5489
95
root 6.92184 15.2006 0.191971 9.09087 16.0711 10.8948
lowerback 18.7079 -0.244107 -12.3832
upperback 3.07596 -3.09338 -4.99542
thorax -6.76145 -1.23074 2.30254
lowerneck -17.5759 -5.38944 -7.29248
upperneck 8.10061 -6.65238 8.69099
head 5.84711 -2.82653 3.26165
rclavicle -3.4191e-014 2.3059e-014
rhumerus -60.5192 0.394448 -81.6392
rradius 74.8014
rwrist -13.9361
rhand -28.8808 6.10762
rfingers 7.12502
rthumb -2.23658 -23.8604
lclavicle -3.4191e-014 2.3059e-014
lhumerus -21.4158 -7.08634 76.4095
lradius 111.941
lwrist 8.40716
lhand -19.8738 -10.3112
lfingers 7.12502
lthumb 6.46162 19.5703
rfemur -31.003 -19.1303 18.2718
rtibia 104.12
rfoot -13.2711 -5.5811
rtoes -39.4509
lfemur -30.5254 -4.77699 -8.72393
ltibia 57.2364
lfoot -34.8589 -8.1378
ltoes -29.5793
96
root 7.0567 15.149 0.54905 9.69587 15.5382 11.3804
lowerback 18.9485 -0.316115 -12.6265
upperback 3.03699 -3.27947 -4.96625
thorax -6.89565 -1.30483 2.51667
lowerneck -18.0193 -5.24908 -7.13087
upperneck 7.73948 -6.41025 8.40273
head 5.7676 -2.71843 3.16487
rclavicle 5.4467e-014 6.36111e-014
rhumerus -60.7334 -0.111993 -81.3739
rradius 74.6717
rwrist -14.6649
rhand -29.2818 6.33188
rfingers 7.12502
rthumb -2.62391 -23.6317
lclavicle 5.4467e-014 6.36111e-014
lhumerus -19.6033 -6.52921 77.4461
lradius 112.514
lwrist 8.63738
lhand -19.9468 -10.3092
lfingers 7.12502
lthumb 6.39117 19.5743
rfemur -35.3314 -19.3326 19.312
rtibia 104.839
rfoot -14.5234 -5.73309
rtoes -39.9313
lfemur -29.3941 -4.80277 -9.49431
ltibia 57.435
lfoot -36.3727 -7.30989
ltoes -29.5897
97
root 7.18678 15.1084 0.913033 10.3096 14.937 11.8834
lowerback 19.1645 -0.372874 -12.9337
upperback 2.97911 -3.45482 -4.89172
thorax -7.03014 -1.37072 2.81295
lowerneck -18.4484 -5.07546 -6.9616
upperneck 7.37582 -6.12214 8.06258
head 5.67981 -2.59223 3.05604
rclavicle 6.52014e-014 1.35174e-014
rhumerus -61.0342 -0.475658 -81.117
rradius 74.9095
rwrist -15.1043
rhand -29.4938 6.67273
rfingers 7.12502
rthumb -2.82862 -23.2883
lclavicle 6.52014e-014 1.35174e-014
lhumerus -18.04 -6.09754 78.6547
lradius 113.453
lwrist 9.16807
lhand -19.9715 -10.2789
lfingers 7.12502
lthumb 6.36733 19.6054
rfemur -39.6512 -19.1823 20.2534
rtibia 105.106
rfoot -15.6681 -5.9368
rtoes -40.5039
lfemur -28.1113 -4.82543 -10.3433
ltibia 57.3804
lfoot -37.6658 -6.38912
ltoes -29.5465
98
root 7.31146 15.0806 1.28658 10.916 14.2786 12.3918
lowerback 19.3455 -0.423796 -13.2822
upperback 2.90572 -3.62587 -4.78294
thorax -7.15621 -1.43256 3.16812
lowerneck -18.8548 -4.86197 -6.76936
upperneck 7.02453 -5.78471 7.66808
head 5.58706 -2.44599 2.93225
rclavicle -3.06128e-014 -1.11319e-014
rhumerus -61.4159 -0.701238 -80.8972
rradius 75.4841
rwrist -15.1808
rhand -29.4944 7.11386
rfingers 7.12502
rthumb -2.82917 -22.8471
lclavicle -3.06128e-014 -1.11319e-014
lhumerus -16.7359 -5.80992 79.9526
lradius 114.701
lwrist 9.95654
lhand -19.9416 -10.206
lfingers 7.12502
lthumb 6.39619 19.6775
rfemur -43.8541 -18.7228 21.0241
rtibia 104.899
rfoot -16.6738 -6.19686
rtoes -41.1181
lfemur -26.6217 -4.84831 -11.2589
ltibia 57.006
lfoot -38.7601 -5.32525
ltoes -29.5846
99
root 7.43079 15.067 1.6715 11.5025 13.5853 12.8779
lowerback 19.4836 -0.48606 -13.618
upperback 2.81746 -3.80315 -4.65138
thorax -7.27135 -1.49703 3.54226
lowerneck -19.2314 -4.60683 -6.54723
upperneck 6.70878 -5.40106 7.22973
head 5.497 -2.28019 2.79525
rclavicle 4.09496e-014 4.77083e-015
rhumerus -61.8568 -0.801214 -80.7423
rradius 76.3238
rwrist -14.8945
rhand -29.2902 7.62632
rfingers 7.12502
rthumb -2.63198 -22.3372
lclavicle 4.09496e-014 4.77083e-015
lhumerus -15.7001 -5.67412 81.2543
lradius 116.184
lwrist 10.8985
lhand -19.8988 -10.1033
lfingers 7.12502
lthumb 6.43754 19.7789
rfemur -47.8453 -18.0275 21.5896
rtibia 104.211
rfoot -17.5207 -6.51771
rtoes -41.7126
lfemur -24.8999 -4.92144 -12.2031
ltibia 56.2748
lfoot -39.6458 -4.12472
ltoes -29.7551
100
root 7.54465 15.0677 2.06838 12.071 12.8838 13.3045
lowerback 19.5689 -0.577461 -13.8852
upperback 2.7076 -3.99705 -4.50005
thorax -7.37995 -1.57021 3.9037
lowerneck -19.5695 -4.31284 -6.29403
upperneck 6.45181 -4.97856 6.75812
head 5.41751 -2.09768 2.64728
rclavicle 4.37326e-015 -2.46493e-014
rhumerus -62.3367 -0.791416 -80.6664
rradius 77.3649
rwrist -14.3346
rhand -28.9168 8.14564
rfingers 7.12502
rthumb -2.27132 -21.822
lclavicle 4.37326e-015 -2.46493e-014
lhumerus -14.9409 -5.68829 82.4903
lradius 117.814
lwrist 11.8489
lhand -19.8626 -9.99967
lfingers 7.12502
lthumb 6.47242 19.8814
rfemur -51.5767 -17.1677 21.9639
rtibia 103.047
rfoot -18.1831 -6.9139
rtoes -42.2138
lfemur -22.9764 -5.05258 -13.1283
ltibia 55.1873
lfoot -40.2699 -2.80595
ltoes -30.1083
101
root 7.65345 15.0819 2.47736 12.6346 12.2065 13.6522
lowerback 19.5859 -0.716122 -14.0419
upperback 2.57498 -4.2192 -4.33229
thorax -7.47637 -1.65943 4.22767
lowerneck -19.8694 -3.9854 -6.01449
upperneck 6.2657 -4.52538 6.26877
head 5.35459 -1.90141 2.49291
rclavicle -4.45278e-014 1.98785e-014
rhumerus -62.8223 -0.686258 -80.681
rradius 78.5207
rwrist -13.6215
rhand -28.458 8.68304
rfingers 7.12502
rthumb -1.82821 -21.2889
lclavicle -4.45278e-014 1.98785e-014
lhumerus -14.4536 -5.84135 83.6116
lradius 119.51
lwrist 12.6599
lhand -19.854 -9.92132
lfingers 7.12502
lthumb 6.48076 19.9595
rfemur -55.0233 -16.2215 22.1629
rtibia 101.426
rfoot -18.6616 -7.38376
rtoes -42.6001
lfemur -20.9114 -5.23918 -14.0078
ltibia 53.7873
lfoot -40.5661 -1.40524
ltoes -30.6408
102
root 7.7575 15.1081 2.89857 13.1984 11.5597 13.9256
lowerback 19.5278 -0.900873 -14.0886
upperback 2.42173 -4.46652 -4.15314
thorax -7.55568 -1.76398 4.50716
lowerneck -20.137 -3.63613 -5.71727
upperneck 6.15634 -4.05505 5.77029
head 5.31297 -1.69758 2.33465
rclavicle 4.19436e-014 5.4467e-014
rhumerus -63.2908 -0.511313 -80.7836
rradius 79.7292
rwrist -12.9006
rhand -27.9809 9.18906
rfingers 7.12502
rthumb -1.36744 -20.7863
lclavicle 4.19436e-014 5.4467e-014
lhumerus -14.2276 -6.13371 84.5919
lradius 121.192
lwrist 13.2089
lhand -19.8628 -9.8588
lfingers 7.12502
lthumb 6.47227 20.0223
rfemur -58.1632 -15.2435 22.1821
rtibia 99.3791
rfoot -18.9734 -7.88877
rtoes -42.8036
lfemur -18.7485 -5.46711 -14.8431
ltibia 52.1404
lfoot -40.4832 0.0490818
ltoes -31.3681
103
root 7.85618 15.1436 3.33055 13.7646 10.9623 14.1429
lowerback 19.4141 -1.1274 -14.0475
upperback 2.2501 -4.74123 -3.96351
thorax -7.6244 -1.88411 4.75377
lowerneck -20.3706 -3.27716 -5.41623
upperneck 6.11027 -3.58016 5.2748
head 5.28985 -1.49201 2.17725
rclavicle 5.12864e-014 4.8901e-014
rhumerus -63.7266 -0.291696 -80.9644
rradius 80.95
rwrist -12.3136
rhand -27.5435 9.6247
rfingers 7.12502
rthumb -0.945019 -20.3529
lclavicle 5.12864e-014 4.8901e-014
lhumerus -14.2497 -6.56697 85.4245
lradius 122.795
lwrist 13.4401
lhand -19.8865 -9.83134
lfingers 7.12502
lthumb 6.44936 20.0505
rfemur -60.9833 -14.2933 22.0281
rtibia 96.9425
rfoot -19.1339 -8.40859
rtoes -42.8982
lfemur -16.5451 -5.72077 -15.6358
ltibia 50.3288
lfoot -39.9731 1.47309
ltoes -32.2827
104
root 7.94955 15.1871 3.77297 14.3222 10.4193 14.3227
lowerback 19.2662 -1.38452 -13.9339
upperback 2.06654 -5.03568 -3.76913
thorax -7.68799 -2.01577 4.968
lowerneck -20.5653 -2.92286 -5.12467
upperneck 6.10437 -3.11588 4.79113
head 5.27842 -1.29193 2.0241
rclavicle 4.29375e-014 -8.34896e-015
rhumerus -64.1237 -0.0623017 -81.2068
rradius 82.147
rwrist -11.9449
rhand -27.1737 9.98196
rfingers 7.12502
rthumb -0.587807 -19.997
lclavicle 4.29375e-014 -8.34896e-015
lhumerus -14.4948 -7.15009 86.1169
lradius 124.26
lwrist 13.3691
lhand -19.8953 -9.83786
lfingers 7.12502
lthumb 6.44091 20.0442
rfemur -63.4544 -13.4144 21.6962
rtibia 94.155
rfoot -19.1931 -8.88883
rtoes -42.9602
lfemur -14.3301 -5.98293 -16.3933
ltibia 48.4324
lfoot -38.9998 2.79677
ltoes -33.3522
105
root 8.03722 15.2368 4.22492 14.8511 9.91873 14.4847
lowerback 19.1009 -1.64888 -13.7898
upperback 1.88693 -5.32919 -3.5681
thorax -7.73825 -2.14904 5.17016
lowerneck -20.7245 -2.58729 -4.86454
upperneck 6.10928 -2.67418 4.3271
head 5.27056 -1.10311 1.87996
rclavicle -1.98785e-015 1.98785e-014
rhumerus -64.4574 0.142389 -81.4805
rradius 83.273
rwrist -11.8046
rhand -26.8926 10.283
rfingers 7.12502
rthumb -0.316322 -19.6965
lclavicle -1.98785e-015 1.98785e-014
lhumerus -14.9231 -7.88553 86.7016
lradius 125.529
lwrist 13.0758
lhand -19.8794 -9.90813
lfingers 7.12502
lthumb 6.45621 19.9735
rfemur -65.5452 -12.623 21.1929
rtibia 91.0623
rfoot -19.1251 -9.29997
rtoes -43.0666
lfemur -12.1249 -6.23672 -17.1242
ltibia 46.5311
lfoot -37.546 3.91709
ltoes -34.5213
106
root 8.11907 15.2919 4.68581 15.3254 9.46495 14.641
lowerback 18.9524 -1.90857 -13.6221
upperback 1.72229 -5.61308 -3.36933
thorax -7.78372 -2.2794 5.354
lowerneck -20.8512 -2.27932 -4.63789
upperneck 6.10645 -2.26536 3.88468
head 5.26077 -0.930312 1.74468
rclavicle -3.28989e-014 3.81667e-014
rhumerus -64.7222 0.291897 -81.7752
rradius 84.3018
rwrist -11.8569
rhand -26.7011 10.5102
rfingers 7.12502
rthumb -0.13141 -19.4695
lclavicle -3.28989e-014 3.81667e-014
lhumerus -15.5161 -8.77 87.201
lradius 126.559
lwrist 12.6415
lhand -19.7967 -10.0438
lfingers 7.12502
lthumb 6.53611 19.8354
rfemur -67.2173 -11.9376 20.5318
rtibia 87.72
rfoot -18.9137 -9.62349
rtoes -43.263
lfemur -9.94705 -6.46694 -17.8258
ltibia 44.6978
lfoot -35.6101 4.7111
ltoes -35.6867
107
root 8.19502 15.3517 5.15533 15.7292 9.05004 14.7951
lowerback 18.8335 -2.14923 -13.4374
upperback 1.58149 -5.87152 -3.17825
thorax -7.82496 -2.39944 5.51476
lowerneck -20.9532 -2.00952 -4.45728
upperneck 6.08474 -1.90045 3.47408
head 5.2467 -0.778187 1.62233
rclavicle 5.11871e-014 1.23246e-014
rhumerus -64.9025 0.362731 -82.0778
rradius 85.1914
rwrist -12.029
rhand -26.6212 10.6917
rfingers 7.12502
rthumb -0.0542782 -19.2881
lclavicle 5.11871e-014 1.23246e-014
lhumerus -16.2486 -9.79717 87.6467
lradius 127.306
lwrist 12.1571
lhand -19.6499 -10.2242
lfingers 7.12502
lthumb 6.67779 19.6505
rfemur -68.457 -11.3469 19.7385
rtibia 84.1985
rfoot -18.5173 -9.85269
rtoes -43.5202
lfemur -7.82543 -6.65875 -18.4916
ltibia 42.9988
lfoot -33.1994 5.12076
ltoes -36.795
